<svg id="eMs1DXaVNxg1" xmlns="http://www.w3.org/2000/svg" xmlns:xlink="http://www.w3.org/1999/xlink" viewBox="0 0 500 500" shape-rendering="geometricPrecision" text-rendering="geometricPrecision" width="500" height="500"><ellipse rx="122.229596" ry="120" transform="translate(247.829787 404.973847)" fill="#fca311" stroke-width="0"/><ellipse rx="37.027206" ry="36.151294" transform="matrix(1.340137 0 0 0.912114 149.09057 488.822553)" fill="#fca311" stroke-width="0"/><ellipse rx="37.027206" ry="36.151294" transform="matrix(1.340137 0 0 0.912114 349.717319 488.822553)" fill="#fca311" stroke-width="0"/><rect width="268.744054" height="60.929807" rx="12" ry="12" transform="matrix(.941151 0 0 1.693744 121.365419 437.222806)" fill="#abb6bf" stroke-width="0"/><ellipse rx="28.86706" ry="100.047291" transform="matrix(-1.102609 0.530658-.477637-.992441 119.09674 249.300432)" fill="#fca311" stroke-width="0"/><ellipse rx="21.680421" ry="77.454895" transform="matrix(-1.102609 0.530658-.477637-.992441 119.09674 249.300432)" fill="#fdefd9" stroke-width="0"/><ellipse rx="28.86706" ry="100.047291" transform="matrix(-1.092653-.550867 0.495826-.983479 379.370856 248.316831)" fill="#fca311" stroke-width="0"/><ellipse rx="21.680421" ry="77.454895" transform="matrix(-1.100106-.535828 0.48229-.990188 379.370856 248.316832)" fill="#fdefd9" stroke-width="0"/><ellipse rx="35.184285" ry="19.637762" transform="matrix(.929307-.369308 0.369308 0.929307 190.875192 384.673327)" fill="#fff" stroke-width="0"/><ellipse rx="35.184285" ry="19.637762" transform="matrix(.90759 0.419858-.419858 0.90759 307.651218 384.673327)" fill="#fff" stroke-width="0"/></svg>