<svg id="eQF27PSqjyl1" xmlns="http://www.w3.org/2000/svg" xmlns:xlink="http://www.w3.org/1999/xlink" viewBox="0 0 640 480" shape-rendering="geometricPrecision" text-rendering="geometricPrecision" width="640" height="480"><ellipse rx="122.229596" ry="120" transform="translate(320 381.499669)" fill="#fca311" stroke-width="0"/><ellipse rx="37.027206" ry="36.151294" transform="matrix(1.340137 0 0 0.912114 221.260783 465.348375)" fill="#fca311" stroke-width="0"/><ellipse rx="37.027206" ry="36.151294" transform="matrix(1.340137 0 0 0.912114 421.887532 465.348375)" fill="#fca311" stroke-width="0"/><rect width="268.744054" height="60.929807" rx="12" ry="12" transform="matrix(.941151 0 0 1.693744 193.535632 413.748628)" fill="#abb6bf" stroke-width="0"/><ellipse rx="28.86706" ry="100.047291" transform="matrix(-1.102609 0.530658-.477637-.992441 191.266953 225.826254)" fill="#fca311" stroke-width="0"/><ellipse rx="21.680421" ry="77.454895" transform="matrix(-1.102609 0.530658-.477637-.992441 191.266953 225.826254)" fill="#fdefd9" stroke-width="0"/><ellipse rx="28.86706" ry="100.047291" transform="matrix(-1.092653-.550867 0.495826-.983479 451.541069 224.842653)" fill="#fca311" stroke-width="0"/><ellipse rx="21.680421" ry="77.454895" transform="matrix(-1.100106-.535828 0.48229-.990188 451.541069 224.842654)" fill="#fdefd9" stroke-width="0"/><ellipse rx="35.184285" ry="19.637762" transform="matrix(.929307-.369308 0.369308 0.929307 263.045405 361.199149)" fill="#fff" stroke-width="0"/><ellipse rx="35.184285" ry="19.637762" transform="matrix(.90759 0.419858-.419858 0.90759 379.821431 361.199149)" fill="#fff" stroke-width="0"/></svg>